<svg xmlns="http://www.w3.org/2000/svg" width="653" height="457" viewBox="0 0 653 457" xmlns:xlink="http://www.w3.org/1999/xlink"><defs><rect id="a" width="653" height="10" y="447" rx="5"/><rect id="b" width="653" height="389" y="68" rx="20"/><linearGradient id="c" x1="41.797%" x2="50%" y1="60.426%" y2="67.367%"><stop stop-color="#391C77" offset="0%"/><stop stop-color="#4D2B9A" offset="100%"/></linearGradient><linearGradient id="e" x1="0%" y1="50%" y2="50%"><stop stop-color="#672D91" offset="0%"/><stop stop-color="#90268F" offset="100%"/></linearGradient><path id="d" d="M0 15.613c0-3.563.148-8.176 2.902-11.42.87-1.013 3.47-4.046 8.873-4.046 2.364 0 4.41.546 6.19 1.653.84-1.01 2.112-1.654 3.536-1.654h11.27c.475 0 .934.072 1.364.205.4-.112.82-.176 1.257-.176h10.59c.422 0 .83.06 1.218.168.42-.126.864-.195 1.325-.195h3.8c1.43 0 2.706.65 3.546 1.67C57.54.72 59.53.146 61.74.146c1.997 0 3.78.448 5.33 1.332.826-.807 1.96-1.306 3.21-1.306h9.342c.696 0 1.35.158 1.94.432.59-.273 1.245-.43 1.94-.43h2.52c2.14 0 3.93 1.457 4.432 3.424.502-1.965 2.293-3.42 4.432-3.42h8.51c1.25 0 2.38.496 3.208 1.302 1.214-.725 2.85-1.31 4.987-1.31 3.275 0 5.37 1.307 6.59 2.47 1.68-1.614 3.9-2.468 6.435-2.468 2.63 0 4.915.888 6.608 2.566l.045.046c2.32 2.368 2.64 5.037 2.64 7.568 0 1.764-1.015 3.292-2.497 4.042 2.5 2.693 2.5 6.383 2.5 8.215 0 2.528-.316 5.75-2.77 8.265-.02.017-.036.035-.054.053-1.672 1.656-3.906 2.497-6.64 2.497-2.62 0-4.78-.763-6.422-2.263-1.23 1.11-3.305 2.292-6.568 2.292-2.147 0-3.778-.505-4.995-1.163-.81.73-1.884 1.175-3.065 1.175h-8.51c-.47 0-.924-.07-1.352-.2-.428.13-.884.202-1.356.202h-8.675c-.695 0-1.35-.158-1.94-.432-.59.273-1.245.432-1.94.432h-9.34c-1.258 0-2.396-.503-3.223-1.316-1.54.876-3.32 1.32-5.32 1.32-2.206 0-4.198-.574-5.873-1.672-.84 1.018-2.115 1.667-3.545 1.667h-3.8c-2.205 0-4.046-1.546-4.48-3.605-.434 2.057-2.274 3.602-4.48 3.602h-4.17c-2.262 0-4.134-1.625-4.506-3.76-.37 2.137-2.245 3.763-4.507 3.763H21.5c-1.418 0-2.685-.64-3.524-1.642-1.785 1.114-3.835 1.662-6.2 1.662-5.406 0-8.004-3.032-8.86-4.03C-.02 25.998-.007 21.016.002 17.38l.002-.57v-.556L0 15.614z"/><path id="g" d="M0 33.485h133.91V.145H0z"/><path id="i" d="M0 15.613c0-3.563.148-8.176 2.902-11.42.87-1.013 3.47-4.046 8.873-4.046 2.364 0 4.41.546 6.19 1.653.84-1.01 2.112-1.654 3.536-1.654h11.27c.475 0 .934.072 1.364.205.4-.112.82-.176 1.257-.176h10.59c.422 0 .83.06 1.218.168.42-.126.864-.195 1.325-.195h3.8c1.43 0 2.706.65 3.546 1.67C57.54.72 59.53.146 61.74.146c1.997 0 3.78.448 5.33 1.332.826-.807 1.96-1.306 3.21-1.306h9.342c.696 0 1.35.158 1.94.432.59-.273 1.245-.43 1.94-.43h2.52c2.14 0 3.93 1.457 4.432 3.424.502-1.965 2.293-3.42 4.432-3.42h8.51c1.25 0 2.38.496 3.208 1.302 1.214-.725 2.85-1.31 4.987-1.31 3.275 0 5.37 1.307 6.59 2.47 1.68-1.614 3.9-2.468 6.435-2.468 2.63 0 4.915.888 6.608 2.566l.045.046c2.32 2.368 2.64 5.037 2.64 7.568 0 1.764-1.015 3.292-2.497 4.042 2.5 2.693 2.5 6.383 2.5 8.215 0 2.528-.316 5.75-2.77 8.265-.02.017-.036.035-.054.053-1.672 1.656-3.906 2.497-6.64 2.497-2.62 0-4.78-.763-6.422-2.263-1.23 1.11-3.305 2.292-6.568 2.292-2.147 0-3.778-.505-4.995-1.163-.81.73-1.884 1.175-3.065 1.175h-8.51c-.47 0-.924-.07-1.352-.2-.428.13-.884.202-1.356.202h-8.675c-.695 0-1.35-.158-1.94-.432-.59.273-1.245.432-1.94.432h-9.34c-1.258 0-2.396-.503-3.223-1.316-1.54.876-3.32 1.32-5.32 1.32-2.206 0-4.198-.574-5.873-1.672-.84 1.018-2.115 1.667-3.545 1.667h-3.8c-2.205 0-4.046-1.546-4.48-3.605-.434 2.057-2.274 3.602-4.48 3.602h-4.17c-2.262 0-4.134-1.625-4.506-3.76-.37 2.137-2.245 3.763-4.507 3.763H21.5c-1.418 0-2.685-.64-3.524-1.642-1.785 1.114-3.835 1.662-6.2 1.662-5.406 0-8.004-3.032-8.86-4.03C-.02 25.998-.007 21.016.002 17.38l.002-.57v-.556L0 15.614z"/><path id="k" d="M0 33.485h133.91V.145H0z"/></defs><g fill="none" fill-rule="evenodd"><use fill="#1D0454" xlink:href="#a"/><rect width="651" height="8" x="1" y="448" stroke="#270C64" stroke-width="2" rx="4"/><use fill="#1D0454" xlink:href="#b"/><rect width="651" height="387" x="1" y="69" stroke="#270C64" stroke-width="2" rx="20"/><path fill="url(#c)" d="M357.014 249.616c-5.616 4.016-8.423 8.85-8.423 14.502 0 6.767 3.47 11.96 10.41 15.58-1.864 5.453-4.56 10.2-8.092 14.24-3.53 4.042-6.755 6.062-9.674 6.062-1.373 0-3.25-.46-5.627-1.376l-1.14-.446c-2.33-.917-4.39-1.376-6.18-1.376-1.692 0-3.543.36-5.554 1.08l-1.434.52-1.803.743c-1.423.57-2.857.855-4.304.855-3.408 0-7.172-2.838-11.292-8.515-5.933-8.13-8.9-16.993-8.9-26.587 0-6.817 1.85-12.307 5.554-16.472 3.703-4.165 8.607-6.247 14.713-6.247 2.28 0 4.413.42 6.4 1.263l1.36.558 1.435.596c1.275.545 2.305.818 3.09.818 1.005 0 2.12-.236 3.347-.707l1.875-.743 1.397-.52c2.232-.82 4.696-1.228 7.394-1.228 6.4 0 11.55 2.467 15.448 7.4zM341.86 225c.073.868.11 1.537.11 2.008 0 4.29-1.545 8.05-4.634 11.285-3.09 3.235-6.682 4.853-10.777 4.853-.124-.967-.185-1.66-.185-2.083 0-3.644 1.434-7.064 4.303-10.262 2.87-3.197 6.192-5.07 9.968-5.614.27-.05.674-.112 1.214-.186z" opacity=".45"/><g transform="rotate(-12 926.118 -2182.97)"><mask id="f" fill="#fff"><use xlink:href="#d"/></mask><use fill="url(#e)" xlink:href="#d"/><path d="M61.74.146c-2.208 0-4.2.574-5.87 1.67C55.03.798 53.752.146 52.32.146h-3.8c-.46 0-.905.07-1.324.196-.39-.107-.796-.168-1.22-.168H35.392c-.435 0-.856.064-1.256.177-.43-.132-.89-.204-1.364-.204H21.5c-1.423 0-2.695.644-3.534 1.654C16.186.693 14.14.147 11.776.147 6.37.147 3.77 3.18 2.9 4.193c-2.922 3.44-2.91 8.424-2.9 12.06v1.125c-.01 3.638-.022 8.62 2.915 12.078.855.997 3.453 4.03 8.858 4.03 2.366 0 4.416-.55 6.2-1.663.84 1.003 2.107 1.642 3.526 1.642h4.88c2.26 0 4.135-1.626 4.506-3.763.372 2.135 2.244 3.76 4.505 3.76h4.173c2.205 0 4.045-1.545 4.48-3.602.433 2.06 2.274 3.605 4.48 3.605h3.8c1.43 0 2.705-.65 3.544-1.667 1.675 1.098 3.667 1.672 5.873 1.672 2 0 3.78-.444 5.32-1.32.826.814 1.964 1.317 3.22 1.317h9.342c.695 0 1.35-.16 1.94-.432.59.274 1.245.432 1.94.432h8.675c.472 0 .928-.07 1.356-.203.428.132.882.2 1.353.2h8.51c1.18 0 2.253-.445 3.065-1.173 1.218.66 2.85 1.164 4.996 1.164 3.263 0 5.34-1.183 6.568-2.292 1.643 1.5 3.8 2.263 6.423 2.263 2.733 0 4.967-.84 6.64-2.497l.052-.053c2.454-2.515 2.77-5.737 2.77-8.264 0-1.83 0-5.52-2.5-8.214 1.483-.75 2.5-2.278 2.5-4.042 0-2.53-.32-5.2-2.642-7.568l-.045-.046c-1.693-1.678-3.978-2.566-6.608-2.566-2.534 0-4.755.854-6.436 2.468-1.22-1.163-3.315-2.47-6.59-2.47-2.135 0-3.772.585-4.986 1.31-.827-.806-1.96-1.303-3.21-1.303h-8.508c-2.14 0-3.93 1.455-4.432 3.42-.5-1.967-2.293-3.425-4.433-3.425h-2.518c-.695 0-1.35.158-1.94.43-.59-.273-1.244-.43-1.94-.43h-9.34c-1.253 0-2.386.498-3.212 1.304C65.52.594 63.737.145 61.74.145z" mask="url(#f)"/><path fill="#FEFEFE" d="M19.036 16.816v.572c.01 3.1.02 6.96-1.824 9.13-.972 1.133-2.466 2.43-5.437 2.43-2.896 0-4.34-1.227-5.37-2.428-1.844-2.173-1.834-6.03-1.827-9.132l.002-.572-.002-.572c-.007-3.1-.017-6.96 1.826-9.13 1.032-1.203 2.475-2.43 5.37-2.43 2.972 0 4.466 1.297 5.436 2.428l.002.002c1.843 2.17 1.833 6.03 1.825 9.13v.572zm-8.437-6.53c-.58 1.108-.58 4.77-.58 6.53 0 1.76 0 5.422.577 6.525.173.345.447.69 1.178.69.603 0 1.01-.224 1.242-.684l.003-.005c.576-1.102.576-4.764.576-6.524 0-1.76 0-5.422-.576-6.527-.236-.464-.642-.69-1.245-.69-.73 0-1.005.347-1.176.686zM32.77 9.04V4.683H21.5V28.93h4.88V18.884h5.496v-4.36H26.38V9.04M45.98 8.145V4.71H35.39v24.216h4.173V18.45h5.524v-3.434h-5.524v-6.87"/><mask id="h" fill="#fff"><use xlink:href="#g"/></mask><path fill="#FEFEFE" mask="url(#h)" d="M48.523 28.93h3.8V4.683h-3.8M79.623 28.93v-2.62h-6.42v-8.23h5.537v-2.62h-5.538V7.33h6.42V4.71H70.28v24.22M92.176 28.93V26.64H86.02V4.71H83.5v24.22M103.395 28.93v-1.803H96.91v-9.42h5.592v-1.803H96.91V6.517h6.485V4.715h-8.51V28.93M129.332 22.61c0-3.24-.44-5.21-2.932-6.21l-2.46-1.003c-2.39-.97-2.795-1.904-2.795-4.91 0-1.602.337-2.972 1.18-3.773.538-.5 1.246-.8 2.256-.8 1.08 0 1.854.332 2.394.933.774.87 1.01 1.87 1.01 3.507h1.348c0-1.97-.202-3.24-1.348-4.408-.808-.8-1.954-1.236-3.37-1.236-1.413 0-2.492.435-3.3 1.236-1.01 1.002-1.517 2.57-1.517 4.575 0 3.54.64 4.91 3.1 5.912l2.46 1.002c2.122.87 2.627 2.07 2.627 5.21 0 2.07-.17 3.24-1.078 4.14-.506.535-1.28.87-2.46.87-1.078 0-1.886-.335-2.425-.87-.808-.8-1.043-1.836-1.043-3.874h-1.347c0 2.64.336 3.742 1.38 4.81.842.834 1.988 1.17 3.437 1.17 1.55 0 2.628-.402 3.403-1.17 1.043-1.068 1.482-2.572 1.482-5.11m-65.268-.28v.317c0 1.022-.248 1.884-.7 2.428-.41.495-.926.725-1.624.725-.743 0-1.295-.245-1.686-.75-.748-.98-.942-2.677-.942-8.242 0-5.565.194-7.26.944-8.246.39-.5.94-.745 1.684-.745.716 0 1.234.22 1.624.69.43.52.667 1.394.667 2.462v.318h3.555l-.005-.324c-.036-2.053-.68-3.77-1.814-4.83-1.05-.977-2.367-1.45-4.026-1.45-1.82 0-3.24.573-4.345 1.758-1.754 1.866-1.832 4.682-1.832 10.366 0 5.685.078 8.5 1.833 10.367 1.103 1.183 2.524 1.76 4.344 1.76 1.647 0 2.893-.43 3.92-1.35 1.223-1.08 1.918-2.832 1.954-4.933l.006-.323h-3.556zm49.453-6.04l-2.562-1.052c-2.22-.926-2.698-1.754-2.698-4.66 0-1.643.368-2.847 1.093-3.576.547-.55 1.29-.83 2.206-.83.995 0 1.774.318 2.315.94.76.87.94 1.938.952 3.265h1.66c-.014-1.907-.262-3.25-1.402-4.395-.84-.845-2.014-1.273-3.49-1.273-1.418 0-2.526.405-3.39 1.24-1.05.99-1.602 2.602-1.602 4.66 0 3.58.687 4.898 3.066 5.88l2.562 1.052c2.065.85 2.63 1.947 2.63 5.102 0 1.877-.153 2.996-.987 3.908-.543.584-1.332.868-2.414.868-1.007 0-1.807-.29-2.375-.863-.807-.812-.98-1.88-.99-3.544h-1.66c.014 2.5.343 3.603 1.37 4.668.814.82 2.046 1.238 3.656 1.238 1.587 0 2.807-.417 3.624-1.24 1.006-1.01 1.435-2.536 1.435-5.102 0-4.288-1.01-5.482-2.998-6.286"/></g><g transform="rotate(13 -1526.4 428.977)"><mask id="j" fill="#fff"><use xlink:href="#i"/></mask><use fill="#000" xlink:href="#i"/><path d="M61.74.146c-2.208 0-4.2.574-5.87 1.67C55.03.798 53.752.146 52.32.146h-3.8c-.46 0-.905.07-1.324.196-.39-.107-.796-.168-1.22-.168H35.392c-.435 0-.856.064-1.256.177-.43-.132-.89-.204-1.364-.204H21.5c-1.423 0-2.695.644-3.534 1.654C16.186.693 14.14.147 11.776.147 6.37.147 3.77 3.18 2.9 4.193c-2.922 3.44-2.91 8.424-2.9 12.06v1.125c-.01 3.638-.022 8.62 2.915 12.078.855.997 3.453 4.03 8.858 4.03 2.366 0 4.416-.55 6.2-1.663.84 1.003 2.107 1.642 3.526 1.642h4.88c2.26 0 4.135-1.626 4.506-3.763.372 2.135 2.244 3.76 4.505 3.76h4.173c2.205 0 4.045-1.545 4.48-3.602.433 2.06 2.274 3.605 4.48 3.605h3.8c1.43 0 2.705-.65 3.544-1.667 1.675 1.098 3.667 1.672 5.873 1.672 2 0 3.78-.444 5.32-1.32.826.814 1.964 1.317 3.22 1.317h9.342c.695 0 1.35-.16 1.94-.432.59.274 1.245.432 1.94.432h8.675c.472 0 .928-.07 1.356-.203.428.132.882.2 1.353.2h8.51c1.18 0 2.253-.445 3.065-1.173 1.218.66 2.85 1.164 4.996 1.164 3.263 0 5.34-1.183 6.568-2.292 1.643 1.5 3.8 2.263 6.423 2.263 2.733 0 4.967-.84 6.64-2.497l.052-.053c2.454-2.515 2.77-5.737 2.77-8.264 0-1.83 0-5.52-2.5-8.214 1.483-.75 2.5-2.278 2.5-4.042 0-2.53-.32-5.2-2.642-7.568l-.045-.046c-1.693-1.678-3.978-2.566-6.608-2.566-2.534 0-4.755.854-6.436 2.468-1.22-1.163-3.315-2.47-6.59-2.47-2.135 0-3.772.585-4.986 1.31-.827-.806-1.96-1.303-3.21-1.303h-8.508c-2.14 0-3.93 1.455-4.432 3.42-.5-1.967-2.293-3.425-4.433-3.425h-2.518c-.695 0-1.35.158-1.94.43-.59-.273-1.244-.43-1.94-.43h-9.34c-1.253 0-2.386.498-3.212 1.304C65.52.594 63.737.145 61.74.145z" mask="url(#j)"/><path fill="#FEFEFE" d="M19.036 16.816v.572c.01 3.1.02 6.96-1.824 9.13-.972 1.133-2.466 2.43-5.437 2.43-2.896 0-4.34-1.227-5.37-2.428-1.844-2.173-1.834-6.03-1.827-9.132l.002-.572-.002-.572c-.007-3.1-.017-6.96 1.826-9.13 1.032-1.203 2.475-2.43 5.37-2.43 2.972 0 4.466 1.297 5.436 2.428l.002.002c1.843 2.17 1.833 6.03 1.825 9.13v.572zm-8.437-6.53c-.58 1.108-.58 4.77-.58 6.53 0 1.76 0 5.422.577 6.525.173.345.447.69 1.178.69.603 0 1.01-.224 1.242-.684l.003-.005c.576-1.102.576-4.764.576-6.524 0-1.76 0-5.422-.576-6.527-.236-.464-.642-.69-1.245-.69-.73 0-1.005.347-1.176.686zM32.77 9.04V4.683H21.5V28.93h4.88V18.884h5.496v-4.36H26.38V9.04M45.98 8.145V4.71H35.39v24.216h4.173V18.45h5.524v-3.434h-5.524v-6.87"/><mask id="l" fill="#fff"><use xlink:href="#k"/></mask><path fill="#FEFEFE" mask="url(#l)" d="M48.523 28.93h3.8V4.683h-3.8M79.623 28.93v-2.62h-6.42v-8.23h5.537v-2.62h-5.538V7.33h6.42V4.71H70.28v24.22M92.176 28.93V26.64H86.02V4.71H83.5v24.22M103.395 28.93v-1.803H96.91v-9.42h5.592v-1.803H96.91V6.517h6.485V4.715h-8.51V28.93M129.332 22.61c0-3.24-.44-5.21-2.932-6.21l-2.46-1.003c-2.39-.97-2.795-1.904-2.795-4.91 0-1.602.337-2.972 1.18-3.773.538-.5 1.246-.8 2.256-.8 1.08 0 1.854.332 2.394.933.774.87 1.01 1.87 1.01 3.507h1.348c0-1.97-.202-3.24-1.348-4.408-.808-.8-1.954-1.236-3.37-1.236-1.413 0-2.492.435-3.3 1.236-1.01 1.002-1.517 2.57-1.517 4.575 0 3.54.64 4.91 3.1 5.912l2.46 1.002c2.122.87 2.627 2.07 2.627 5.21 0 2.07-.17 3.24-1.078 4.14-.506.535-1.28.87-2.46.87-1.078 0-1.886-.335-2.425-.87-.808-.8-1.043-1.836-1.043-3.874h-1.347c0 2.64.336 3.742 1.38 4.81.842.834 1.988 1.17 3.437 1.17 1.55 0 2.628-.402 3.403-1.17 1.043-1.068 1.482-2.572 1.482-5.11m-65.268-.28v.317c0 1.022-.248 1.884-.7 2.428-.41.495-.926.725-1.624.725-.743 0-1.295-.245-1.686-.75-.748-.98-.942-2.677-.942-8.242 0-5.565.194-7.26.944-8.246.39-.5.94-.745 1.684-.745.716 0 1.234.22 1.624.69.43.52.667 1.394.667 2.462v.318h3.555l-.005-.324c-.036-2.053-.68-3.77-1.814-4.83-1.05-.977-2.367-1.45-4.026-1.45-1.82 0-3.24.573-4.345 1.758-1.754 1.866-1.832 4.682-1.832 10.366 0 5.685.078 8.5 1.833 10.367 1.103 1.183 2.524 1.76 4.344 1.76 1.647 0 2.893-.43 3.92-1.35 1.223-1.08 1.918-2.832 1.954-4.933l.006-.323h-3.556zm49.453-6.04l-2.562-1.052c-2.22-.926-2.698-1.754-2.698-4.66 0-1.643.368-2.847 1.093-3.576.547-.55 1.29-.83 2.206-.83.995 0 1.774.318 2.315.94.76.87.94 1.938.952 3.265h1.66c-.014-1.907-.262-3.25-1.402-4.395-.84-.845-2.014-1.273-3.49-1.273-1.418 0-2.526.405-3.39 1.24-1.05.99-1.602 2.602-1.602 4.66 0 3.58.687 4.898 3.066 5.88l2.562 1.052c2.065.85 2.63 1.947 2.63 5.102 0 1.877-.153 2.996-.987 3.908-.543.584-1.332.868-2.414.868-1.007 0-1.807-.29-2.375-.863-.807-.812-.98-1.88-.99-3.544h-1.66c.014 2.5.343 3.603 1.37 4.668.814.82 2.046 1.238 3.656 1.238 1.587 0 2.807-.417 3.624-1.24 1.006-1.01 1.435-2.536 1.435-5.102 0-4.288-1.01-5.482-2.998-6.286"/></g><text fill="#321674" opacity=".65" font-family="HelveticaNeue-Bold, Helvetica Neue" font-size="28" font-weight="bold"><tspan x="34" y="128">Remote</tspan> <tspan x="34" y="156">Work</tspan> <tspan x="34" y="184">Works</tspan></text><path fill="#8C1FD2" fill-rule="nonzero" d="M361.413.526c-.954 2.465-1.87 4.938-2.75 7.433-.336.964-.657 1.936-.943 2.918-.342 1.172-.59 2.345-.844 3.54-.568 2.704-.764 5.466-.98 8.217-.12 1.503-.092 3.04-.132 4.547-.04 1.478.085 2.985.14 4.466.165 4.495.885 8.964 2 13.325l.57 2.244c.092.35.16.717.277 1.06.425 1.278.847 2.554 1.27 3.83.755 2.275 1.765 4.468 2.678 6.68.405.984.896 1.94 1.342 2.903.383.82.745 1.655 1.166 2.458 1.055 2.02 2.075 4.05 3.232 6.013.732 1.242 1.462 2.483 2.192 3.726.476.804 1.02 1.575 1.53 2.36.59.905 1.148 1.843 1.777 2.72.78 1.088 1.555 2.175 2.333 3.262 1.324 1.852 2.76 3.616 4.168 5.405.638.807 1.346 1.564 2.02 2.342.63.726 1.245 1.465 1.896 2.17l2.916 3.145c.658.71 1.378 1.362 2.074 2.037.697.677 1.376 1.383 2.11 2.02 1.053.91 2.105 1.82 3.156 2.732.88.762 1.84 1.442 2.763 2.153.824.637 1.676 1.205 2.543 1.783.865.574 1.718 1.14 2.618 1.66.95.545 1.887 1.14 2.87 1.624 2.078 1.017 4.148 2.067 6.32 2.864 2.182.8 4.352 1.566 6.587 2.204-.724.246-1.45.487-2.175.725-2.044.67-4.118 1.28-6.202 1.813-2.135.543-4.278.973-6.444 1.374-1.1.203-2.183.45-3.27.693-.27.152-.42.393-.444.725-.29.946-.3 2.053-.298 3.033-.002.743.048 1.483.15 2.22.03.185.117 1.136.427 1.445.053.056.116.09.185.096 1.204.12 2.386.108 3.582-.074 1.14-.173 2.267-.384 3.395-.63 2.084-.446 4.146-1.01 6.187-1.62 4.236-1.267 8.438-2.7 12.464-4.532.498-.226.987-.46 1.477-.706.34-.168.67-.344 1-.533.647-.372 1.435-.856 1.78-1.536.397-.78.457-1.752.514-2.602.063-.934.062-1.9-.03-2.832l-.122-1.128c-.05-.516-.187-1.008-.406-1.474-.163-.193-.313-.318-.504-.428-.057-.425-.173-.834-.357-1.224-1.887-2.027-3.69-4.1-5.324-6.34-.87-1.195-1.69-2.42-2.512-3.647-1.008-1.51-2.01-3.03-2.89-4.618-1.005-1.818-1.967-3.65-2.888-5.512-.882-1.775-1.683-3.59-2.552-5.368-.17-.276-.342-.276-.51-.002-.074.19-.148.382-.22.572-.157.652-.254 1.313-.285 1.982-.054.852-.052 1.703.007 2.554.062.858.143 1.765.517 2.557.84 1.777 1.672 3.557 2.54 5.32.88 1.787 1.848 3.527 2.835 5.26.874 1.538 1.86 3.016 2.862 4.474.625.91 1.253 1.815 1.895 2.713-.6-.116-1.202-.224-1.803-.346-2.188-.445-4.307-1.1-6.427-1.804-.952-.315-1.92-.656-2.842-1.04l-1.66-.696c-.497-.208-1.016-.39-1.5-.628l-1.857-.91c-.516-.252-1.057-.48-1.555-.765-.627-.357-1.25-.718-1.877-1.074-.523-.302-1.078-.576-1.582-.91-1.137-.755-2.274-1.513-3.413-2.27-.557-.37-1.072-.826-1.6-1.235-.48-.37-.962-.74-1.44-1.11-.92-.797-1.84-1.592-2.76-2.387-.682-.588-1.32-1.206-1.968-1.835-.81-.782-1.668-1.536-2.436-2.36-.92-.988-1.836-1.98-2.754-2.97-1.442-1.554-2.806-3.182-4.193-4.786-.815-.94-1.55-1.963-2.32-2.938-.53-.673-1.057-1.34-1.555-2.035l-2.558-3.57c-.528-.737-1.004-1.512-1.5-2.27-.62-.95-1.292-1.885-1.87-2.86-.634-1.08-1.27-2.156-1.906-3.234-.45-.763-.928-1.515-1.337-2.3-.68-1.293-1.356-2.585-2.034-3.877-.98-1.877-1.83-3.823-2.723-5.74-.377-.81-.686-1.654-1.03-2.48-.335-.813-.673-1.627-1.01-2.44-.255-.76-.507-1.52-.76-2.28-.253-.76-.562-1.52-.763-2.295-.486-1.888-1.007-3.77-1.416-5.676-.262-1.362-.483-2.73-.648-4.106-.134-1.473-.194-2.947-.25-4.423.016-.77.034-1.537.053-2.307.06-.833.123-1.666.185-2.5l.33-2.54c-.043.227-.088.452-.132.68.197-1.014.37-2.037.64-3.033.34-1.26.71-2.502 1.096-3.75.76-2.45 1.645-4.862 2.552-7.26.138-.574.22-1.153.25-1.742.044-.746.042-1.492-.01-2.24-.03-.59-.117-1.168-.258-1.74-.005-.02-.386-1.175-.643-.507z"/></g></svg>
