<svg xmlns="http://www.w3.org/2000/svg" width="85" height="128" viewBox="0 0 85 128" xmlns:xlink="http://www.w3.org/1999/xlink"><defs><path id="a" d="M41.5 127.25c29.123 0 38.5-27.828 38.5-49 0-2.896-16.737-2-38-2s-39-1.294-39 2c0 20.035 9.377 49 38.5 49z"/><path id="b" d="M0 68h83v12H0z"/><path id="c" d="M47.19 36.31c-8.796-6.25-14.395-11.294-16.796-15.136-2.4-3.84-2.972-9.263-1.714-16.266 6.71.308 12.465 2.863 17.267 7.664 4.8 4.802 7.5 10.43 8.097 16.886l-6.854 6.85z"/><path id="d" d="M56.756 44.39c-9.65-6.854-15.79-12.387-18.423-16.6-2.633-4.214-3.26-10.16-1.88-17.842 7.36.338 13.672 3.14 18.938 8.407 5.268 5.267 8.23 11.44 8.883 18.52l-7.517 7.514z"/><path id="e" d="M39.376 46.298c-3.445-5.613-7.808-10.783-13.09-15.508-5.282-4.724-8.087-11.715-8.414-20.97 7.794.357 14.48 3.325 20.058 8.904 5.58 5.578 8.714 12.117 9.407 19.616l-7.96 7.958z"/><path id="f" d="M65.757 61.748c-9.484-9.737-15.714-17.53-18.69-23.383-2.978-5.852-6.12-11.755-9.43-17.71 11.534.977 20.376 4.54 26.526 10.69 6.15 6.15 9.608 13.36 10.372 21.628l-8.778 8.775z"/><path id="g" d="M43.285 68.215C28.163 54.032 18.935 44.273 15.602 38.94c-3.334-5.334-6-11.667-8-19 12.502 1.058 22.086 4.92 28.753 11.587 6.667 6.667 10.45 15.147 11.347 25.44l-4.417 11.248z"/><path id="h" d="M63.286 70c-7.027-2.45-12.384-7.045-16.07-13.784C43.53 49.476 40.458 42.762 38 36.07c15.27-.605 26.556 2.72 33.857 9.98C79.16 53.306 83.54 61.29 85 70H63.286z"/><path id="i" d="M24 70c-7.333-4-12.667-8.667-16-14S2.333 44.333 1 37c13.333.667 23.333 4.333 30 11 6.667 6.667 10.667 14 12 22H24z"/></defs><g fill="none" fill-rule="evenodd"><use fill="#1D0454" xlink:href="#a"/><path stroke="#270C64" stroke-width="2" d="M41.5 126.25c13.132 0 22.89-5.766 29.322-16.09C76.228 101.488 79 89.88 79 78.25c0 .084.022.117-.056.065-.213-.142-.597-.29-1.137-.424-1.145-.283-2.887-.48-5.263-.604-3.864-.2-7.44-.204-18.922-.1-5.175.046-8.19.065-11.622.065-3.96 0-7.484-.036-13.388-.125-11.273-.17-14.56-.18-18.31.015-2.313.12-4.01.327-5.123.628-.885.24-1.18.458-1.18.483 0 11.11 2.803 22.732 8.18 31.49 6.488 10.564 16.256 16.51 29.32 16.51z"/><use fill="#1D0454" xlink:href="#b"/><path stroke="#270C64" stroke-width="2" d="M1 69h81v10H1z"/><g transform="rotate(145 34.54 0)"><use fill="#1D0454" xlink:href="#c"/><path stroke="#270C64" stroke-width="2" d="M47.082 35.003l5.92-5.916c-.66-6.026-3.24-11.284-7.763-15.807-4.415-4.415-9.643-6.848-15.725-7.32-1.018 6.353-.425 11.24 1.727 14.684 2.25 3.6 7.54 8.41 15.84 14.36z"/></g><g transform="rotate(167 46.912 0)"><use fill="#1D0454" xlink:href="#d"/><path stroke="#270C64" stroke-width="2" d="M56.647 43.084l6.584-6.58c-.716-6.65-3.558-12.454-8.546-17.442-4.88-4.88-10.665-7.56-17.397-8.062-1.14 7.03-.49 12.444 1.894 16.26 2.484 3.972 8.316 9.27 17.467 15.824z"/></g><g transform="rotate(7 32.605 28.06)"><use fill="#1D0454" xlink:href="#e"/><path stroke="#270C64" stroke-width="2" d="M39.556 44.704l6.74-6.736c-.756-7.07-3.773-13.238-9.073-18.537-5.138-5.138-11.226-7.98-18.3-8.543.494 8.45 3.177 14.817 8.03 19.158 5.015 4.487 9.217 9.373 12.603 14.66z"/></g><g transform="rotate(177 55.007 0)"><use fill="#1D0454" xlink:href="#f"/><path stroke="#270C64" stroke-width="2" d="M65.767 60.323l7.726-7.722c-.827-7.837-4.165-14.676-10.037-20.547-5.633-5.634-13.63-9.045-24.022-10.216 2.978 5.4 5.82 10.758 8.523 16.074 2.848 5.6 8.788 13.082 17.81 22.413z"/></g><g transform="rotate(3 27.652 44.077)"><use fill="#1D0454" xlink:href="#g"/><path stroke="#270C64" stroke-width="2" d="M42.894 66.475l3.79-9.653c-.913-9.96-4.59-18.142-11.036-24.588-6.23-6.23-15.113-9.956-26.69-11.162 1.927 6.653 4.425 12.432 7.492 17.338 3.192 5.107 12.024 14.49 26.444 28.065z"/></g><path fill="#270C64" d="M34.857 41.407c.223.307.564.477.916.495.268.014.542-.06.775-.23.54-.392.66-1.147.265-1.684-2.542-3.48-7.106-8.25-14.403-11.225-.62-.25-1.327.043-1.58.66-.253.615.044 1.32.663 1.572 6.772 2.763 11.005 7.188 13.364 10.412z"/><g transform="matrix(-1 0 0 1 123 0)"><use fill="#1D0454" xlink:href="#h"/><path stroke="#270C64" stroke-width="2" d="M63.456 69H83.8c-1.61-8.043-5.818-15.452-12.648-22.242-6.86-6.818-17.418-10.08-31.728-9.733 2.355 6.215 5.245 12.452 8.67 18.71C51.633 62.21 56.743 66.62 63.455 69z"/></g><path fill="#270C64" d="M52.68 57.428c-.297.377-.734.572-1.173.572-.333 0-.67-.113-.95-.346-.646-.538-.745-1.51-.22-2.173 3.392-4.28 9.382-10.075 18.656-13.394.786-.28 1.648.144 1.922.95.275.804-.14 1.686-.926 1.967-8.608 3.082-14.165 8.46-17.31 12.425z"/><use fill="#1D0454" xlink:href="#i"/><path stroke="#270C64" stroke-width="2" d="M24.256 69H41.8c-1.48-7.335-5.31-14.095-11.507-20.293-6.26-6.26-15.604-9.816-28.07-10.635 1.343 6.684 3.552 12.48 6.625 17.398 3.2 5.122 8.33 9.635 15.408 13.53z"/><path fill="#270C64" d="M30.057 57.97c.277.343.683.52 1.092.52.31 0 .623-.103.882-.314.603-.487.695-1.37.206-1.968-3.158-3.876-8.735-9.124-17.37-12.13-.73-.253-1.533.13-1.79.86-.255.728.132 1.527.864 1.782 8.013 2.79 13.187 7.66 16.115 11.25z"/></g></svg>
