<svg width="108" height="20" viewBox="0 0 108 20" xmlns="http://www.w3.org/2000/svg"><title>OFFICELESS</title><path d="M5.44 20c-2.576 0-4.312-1.146-5.035-3.295C.087 15.817 0 15.015 0 10c0-5.014.087-5.817.405-6.705C1.128 1.146 2.865 0 5.439 0c2.575 0 4.31 1.146 5.034 3.295.318.888.405 1.69.405 6.705 0 5.014-.087 5.817-.405 6.705C9.75 18.854 8.013 20 5.44 20zm0-3.381c.722 0 1.214-.401 1.388-.946.144-.458.202-.945.202-5.673s-.058-5.215-.202-5.673c-.174-.545-.666-.946-1.389-.946s-1.215.401-1.389.946c-.144.458-.202.945-.202 5.673s.058 5.215.202 5.673c.174.545.666.946 1.39.946zm8.534 2.837c0 .172.115.286.29.286h3.21c.174 0 .29-.114.29-.286v-7.479c0-.115.058-.172.173-.172h4.253c.174 0 .29-.114.29-.286V8.682c0-.172-.116-.287-.29-.287h-4.253c-.115 0-.173-.057-.173-.172V3.811c0-.115.058-.172.173-.172h4.919c.173 0 .289-.115.289-.287V.544c0-.172-.116-.286-.29-.286h-8.592c-.174 0-.29.114-.29.286v18.912zm12.093 0c0 .172.116.286.29.286h2.516c.174 0 .29-.114.29-.286v-7.851c0-.115.057-.172.173-.172h4.398c.173 0 .289-.115.289-.287V8.94c0-.172-.116-.287-.29-.287h-4.397c-.116 0-.173-.057-.173-.172V3.21c0-.114.057-.172.173-.172h5.092c.174 0 .29-.114.29-.286V.544c0-.172-.116-.286-.29-.286h-8.072c-.173 0-.289.114-.289.286v18.912zm11.601 0c0 .172.116.286.29.286h2.517c.173 0 .289-.114.289-.286V.544c0-.172-.116-.286-.29-.286h-2.516c-.174 0-.29.114-.29.286v18.912zm7.117-2.321C45.393 18.968 46.782 20 49.01 20c2.575 0 4.138-1.375 4.398-4.355.029-.2-.058-.315-.232-.344l-1.649-.315c-.173-.029-.318.057-.318.229-.145 1.748-.81 2.607-2.17 2.607-1.041 0-1.678-.43-1.967-1.346-.174-.545-.26-1.09-.26-6.476 0-5.387.086-5.931.26-6.476.29-.917.926-1.346 1.967-1.346 1.36 0 2.025.86 2.17 2.607 0 .172.145.258.318.23l1.65-.316c.173-.029.26-.143.23-.344C53.147 1.375 51.585 0 49.01 0c-2.227 0-3.616 1.032-4.224 2.865-.26.803-.347 1.605-.347 7.135 0 5.53.087 6.332.347 7.135zm11.718 2.32c0 .173.115.287.289.287h7.435c.174 0 .29-.114.29-.286V17.88c0-.172-.116-.287-.29-.287H59.02c-.116 0-.174-.057-.174-.172v-6.275c0-.114.058-.172.174-.172h4.513c.173 0 .29-.114.29-.286V9.112c0-.172-.117-.287-.29-.287H59.02c-.116 0-.174-.057-.174-.172V2.58c0-.115.058-.172.174-.172h5.207c.174 0 .29-.115.29-.287V.544c0-.172-.116-.286-.29-.286h-7.435c-.174 0-.29.114-.29.286v18.912zm11.572 0c0 .173.116.287.29.287h6.653c.174 0 .29-.114.29-.286v-.831c0-.172-.116-.287-.29-.287h-5.265c-.116 0-.174-.057-.174-.172V.544c0-.172-.115-.286-.289-.286h-.926c-.173 0-.289.114-.289.286v18.912zm10.676 0c0 .173.115.287.289.287h6.683c.174 0 .29-.114.29-.286v-.831c0-.172-.116-.287-.29-.287h-5.294c-.116 0-.174-.057-.174-.172v-7.421c0-.115.058-.172.174-.172h4.629c.173 0 .289-.115.289-.286v-.831c0-.172-.116-.287-.29-.287H80.43c-.116 0-.174-.057-.174-.172V1.834c0-.115.058-.172.174-.172h5.294c.174 0 .29-.115.29-.287v-.83c0-.173-.116-.287-.29-.287H79.04c-.174 0-.29.114-.29.286v18.912zM96.746 14.5c0-3.095-.781-4.27-3.183-5.215l-1.186-.459c-1.649-.63-2.285-1.633-2.285-4.126 0-2.75.839-3.897 2.806-3.897 1.938 0 2.806 1.146 2.922 3.754 0 .172.116.286.318.23l.232-.058c.173-.058.202-.143.202-.315-.087-3.009-1.33-4.384-3.674-4.384-2.401 0-3.645 1.49-3.645 4.699 0 2.894.665 4.097 3.211 5.071l1.186.459c1.591.602 2.257 1.662 2.257 4.298 0 3.725-1.013 4.642-2.98 4.642-1.91 0-2.951-1.032-3.183-4.212 0-.172-.115-.287-.318-.23l-.231.058c-.174.057-.203.143-.203.315.174 3.266 1.389 4.842 3.935 4.842 2.604 0 3.819-1.375 3.819-5.472zm11.254 0c0-3.095-.781-4.27-3.182-5.215l-1.187-.459c-1.649-.63-2.285-1.633-2.285-4.126 0-2.75.839-3.897 2.806-3.897 1.939 0 2.806 1.146 2.922 3.754 0 .172.116.286.318.23l.232-.058c.173-.058.202-.143.202-.315-.086-3.009-1.33-4.384-3.674-4.384-2.401 0-3.645 1.49-3.645 4.699 0 2.894.665 4.097 3.211 5.071l1.186.459c1.592.602 2.257 1.662 2.257 4.298 0 3.725-1.013 4.642-2.98 4.642-1.91 0-2.95-1.032-3.182-4.212 0-.172-.116-.287-.319-.23l-.231.058c-.174.057-.203.143-.203.315.174 3.266 1.39 4.842 3.935 4.842 2.604 0 3.819-1.375 3.819-5.472z" fill="#FFF" fill-rule="evenodd"/></svg>