<svg width="118" height="24" viewBox="0 0 118 24" xmlns="http://www.w3.org/2000/svg"><title>Group 37</title><g fill="#FFF" fill-rule="evenodd"><path d="M59.95 9.298c-.102 2.248-1.04 8.948-1.04 8.948-.037.307-.2.605-.463.827-1.115.942-2.477 1.145-3.682 1.08-2.25-.118-2.91-.76-2.322-5.611.422-3.49.916-4.297 2.123-5.115 1.152-.78 2.579-.745 4.864-.674v.002c.289.012.516.227.52.492v.051zm3.65 10.917c-.373 0-.643-.269-.604-.6l1.546-13.093c.09-.767-.586-1.434-1.454-1.434 0 0-7.478-.48-10.332.803-2.816 1.266-4.091 4.664-4.562 8.651-.572 4.849-.146 9.458 5 9.458 2.21 0 4.008-.124 5.221-1.64a2.496 2.496 0 0 1-.025.274c-.084.729.559 1.363 1.383 1.363h4.83l.394-3.343c.028-.234-.174-.439-.433-.439h-.965zM38.07 5c-.033.177-.054.36-.07.541L38.07 5zM38 5.003V5h-5v.003h5z"/><path d="M32.61 5.003L31.025 5c-.8 0-1.738.219-2.657.598a9.766 9.766 0 0 0-.659.3c-1.77.892-2.486 2.707-2.679 3.196-.49 1.245-.408 4.516 2.214 6.003.066.037.13.074.2.109 1.34.68 2.778.98 3.769 1.507.75.399 1.243.927 1.243 1.848 0 .58-.418.992-1.065 1.282-1.207.54-3.897.356-4.787.356h-2.14l-.463 3.8h4.367l1.42.001c1.025.001 1.925-.242 2.712-.497 2.653-.86 3.98-2.752 3.98-5.804 0-2.386-2.16-4.019-4.79-4.909-.105-.035-.21-.07-.317-.103-1.464-.456-3.11-.866-2.362-2.753.53-1.334 2.85-1.155 4.125-1.13.199.003.385.004.59 0h1.395c.52 0 1.019-.15 1.445-.404.676-.402 1.167-1.065 1.253-1.812l.105-.916c.018-.224.04-.45.077-.669h-5.39zM43.888 4.834l.337-3.116A.657.657 0 0 0 43.56 1h-2.743a.521.521 0 0 0-.51.447l-.367 3.297-.462 4.15v.02l-1.014 9.1-.452 4.069c-.115 1.059.677 1.917 1.767 1.917h3.949l.367-3.385a.4.4 0 0 0-.405-.449h-.903c-.346 0-.597-.272-.554-.608l.09-.801 1.095-9.594a.572.572 0 0 1 .574-.494h2.277c1.274 0 2.426-1.006 2.559-2.236L49 4.834h-5.112zM72.766 5.004a.762.762 0 0 0-.538.223l-.819.82a.758.758 0 0 1-.517.22l.06-.556A.65.65 0 0 0 70.298 5h-2.694c-.25 0-.534.2-.56.443L65 24h3.869l1.65-14.7a.551.551 0 0 1 .048-.166c.11-.241.334-.337.58-.33h2.193c.027 0 .053-.003.08-.003 1.219-.042 2.282-1.02 2.41-2.213L76 5.004h-3.234zM96.95 9.298c-.102 2.248-1.04 8.948-1.04 8.948-.037.307-.2.605-.463.827-1.115.942-2.477 1.145-3.682 1.08-2.25-.118-2.91-.76-2.322-5.611.422-3.49.916-4.297 2.123-5.115 1.152-.78 2.579-.745 4.864-.674v.002c.289.012.516.227.52.492v.051zm3.65 10.917c-.373 0-.643-.269-.604-.6l1.546-13.093c.09-.767-.586-1.434-1.454-1.434 0 0-7.478-.48-10.332.803-2.816 1.266-4.091 4.664-4.562 8.651-.572 4.849-.146 9.458 5 9.458 2.21 0 4.008-.124 5.221-1.64a2.496 2.496 0 0 1-.025.274c-.084.729.559 1.363 1.383 1.363h4.83l.394-3.343c.028-.234-.174-.439-.433-.439h-.965zM81.888 4.834l.337-3.116A.657.657 0 0 0 81.56 1h-2.743a.521.521 0 0 0-.51.447l-.367 3.297-.462 4.15v.02l-1.014 9.1-.452 4.069c-.115 1.059.677 1.917 1.767 1.917h3.949l.367-3.385a.4.4 0 0 0-.405-.449h-.903c-.346 0-.597-.272-.554-.608l.09-.801 1.095-9.594a.572.572 0 0 1 .574-.494h2.277c1.274 0 2.426-1.006 2.559-2.236L87 4.834h-5.112zM107.614 14.16l.512-4.731c.028-.258.04-.365.082-.456l.002-.005a.467.467 0 0 1 .373-.305h2.712c1.586 0 3.07.103 2.61 2.992-.534 3.362-6.225 2.666-6.291 2.504m7.24 2.91c2.713-1.83 3.021-5.58 3.048-5.835.062-.581.563-3.417-1.497-5.155-.59-.498-1.472-.771-2.502-.916-1.27-.178-8.097-.163-8.097-.163-.62 0-1.193.445-1.277 1.038v.002l-.005.026v.008a22407.448 22407.448 0 0 1-1.473 12.813 7.134 7.134 0 0 0-.05.886c.009 1.288.416 2.316 1.216 3.063.207.193.448.354.712.493.468.244 1.013.413 1.588.564.406.106 1.69.109 2.823.106h5.836l.365-3.369a.396.396 0 0 0-.4-.432h-5.853c-1.125 0-2.304-.072-2.28-.469.004-.064.188-1.704.188-1.704 1.512.208 5.462.525 7.658-.956M112.823 3.08c.451.29 1.454.92 2.582.92.589 0 .718-.606.487-.99 0 0-1.429-1.494-2.052-2.304-.674-.876-2.231-.952-3.001-.143-.778.816-2.654 2.402-2.654 2.402-.363.473-.179 1.035.438 1.035 1.242 0 2.38-.674 2.89-.965.44-.25.922-.202 1.31.046M13.783 11.058V9.09l3.93-3.638v1.967l-3.93 3.639zm-9.363 4.09L.488 11.51H13.58l3.932 3.64H4.42zm9.363 8.4v-1.967l3.93-3.638v1.967l-3.93 3.638zM.287 21.658h13.21v2.078H.286v-2.078zm4.133-3.903h13.092l-3.932 3.64H.488l3.932-3.64zM.287 11.697l3.93 3.638v1.968l-3.93-3.638v-1.968zM4.42 5.264h13.092l-3.932 3.64H.488l3.932-3.64zM.287 9.167h13.21v2.078H.286V9.167zm17.426 8.324H4.504v-2.078h13.21v2.078zM18 7.474V5.132l-.001-.006a.135.135 0 0 0-.003-.02.094.094 0 0 0-.005-.018l-.002-.007-.007-.01a.123.123 0 0 0-.011-.017c-.004-.006-.01-.01-.014-.015l-.015-.012a.171.171 0 0 0-.02-.01l-.01-.007-.007-.001c-.007-.003-.014-.004-.02-.005L17.862 5 17.857 5H4.36a.15.15 0 0 0-.102.039L.042 8.942a.137.137 0 0 0-.028.038l-.005.012a.123.123 0 0 0-.007.035L0 9.035v4.684c0 .035.015.069.042.094l4.117 3.81-4.117 3.81a.133.133 0 0 0-.028.038l-.005.012a.124.124 0 0 0-.007.035L0 21.526v2.342c0 .073.064.132.143.132H13.64a.157.157 0 0 0 .102-.039l4.217-3.903a.127.127 0 0 0 .042-.093V15.28l-.002-.008a.125.125 0 0 0-.008-.036l-.004-.012a.129.129 0 0 0-.028-.038l-4.116-3.81 4.116-3.81A.127.127 0 0 0 18 7.474z"/></g></svg>